<svg width="88" height="76" viewBox="0 0 88 76" fill="none" xmlns="http://www.w3.org/2000/svg">
<path d="M48.3301 73.5C46.4056 76.8333 41.5944 76.8333 39.6699 73.5L1.56475 7.5C-0.359749 4.16666 2.04588 0 5.89488 0L82.1051 0C85.9541 0 88.3597 4.16666 86.4352 7.5L48.3301 73.5Z" fill="#2B2B2B"/>
<path d="M48.3301 73.5C46.4056 76.8333 41.5944 76.8333 39.6699 73.5L1.56475 7.5C-0.359749 4.16666 2.04588 0 5.89488 0L82.1051 0C85.9541 0 88.3597 4.16666 86.4352 7.5L48.3301 73.5Z" fill="#2B2B2B"/>
<path d="M48.3301 73.5C46.4056 76.8333 41.5944 76.8333 39.6699 73.5L1.56475 7.5C-0.359749 4.16666 2.04588 0 5.89488 0L82.1051 0C85.9541 0 88.3597 4.16666 86.4352 7.5L48.3301 73.5Z" fill="#2B2B2B"/>
</svg>
