<svg width="88" height="76" viewBox="0 0 88 76" fill="none" xmlns="http://www.w3.org/2000/svg">
<path d="M39.6699 2.5C41.5944 -0.833333 46.4056 -0.833333 48.3301 2.5L86.4352 68.5C88.3597 71.8333 85.9541 76 82.1051 76H5.89488C2.04588 76 -0.359747 71.8333 1.56475 68.5L39.6699 2.5Z" fill="#2B2B2B"/>
<path d="M39.6699 2.5C41.5944 -0.833333 46.4056 -0.833333 48.3301 2.5L86.4352 68.5C88.3597 71.8333 85.9541 76 82.1051 76H5.89488C2.04588 76 -0.359747 71.8333 1.56475 68.5L39.6699 2.5Z" fill="#2B2B2B"/>
<path d="M39.6699 2.5C41.5944 -0.833333 46.4056 -0.833333 48.3301 2.5L86.4352 68.5C88.3597 71.8333 85.9541 76 82.1051 76H5.89488C2.04588 76 -0.359747 71.8333 1.56475 68.5L39.6699 2.5Z" fill="#2B2B2B"/>
</svg>
